<svg xmlns="http://www.w3.org/2000/svg" viewBox="0 0 1200 800" role="img" aria-labelledby="title desc">
  <title id="title">Patch-wise vector quantization for unsupervised medical anomaly detection</title>
  <desc id="desc">Placeholder thumbnail for the Pattern Recognition Letters 2024 paper.</desc>
  <defs>
    <linearGradient id="bg" x1="0%" y1="0%" x2="100%" y2="100%">
      <stop offset="0%" stop-color="#1b2333"/>
      <stop offset="50%" stop-color="#31506d"/>
      <stop offset="100%" stop-color="#a9d2ff"/>
    </linearGradient>
  </defs>
  <rect width="1200" height="800" fill="url(#bg)"/>
  <rect x="74" y="84" width="286" height="42" rx="21" fill="#e1efff"/>
  <text x="217" y="112" text-anchor="middle" font-family="Arial, sans-serif" font-size="23" font-weight="700" fill="#35506b">Pattern Recognition Letters</text>
  <rect x="826" y="116" width="240" height="240" rx="30" fill="#ffffff" opacity="0.11"/>
  <g fill="#dceaff" opacity="0.92">
    <rect x="864" y="154" width="48" height="48" rx="10"/>
    <rect x="926" y="154" width="48" height="48" rx="10"/>
    <rect x="988" y="154" width="48" height="48" rx="10"/>
    <rect x="864" y="216" width="48" height="48" rx="10"/>
    <rect x="926" y="216" width="48" height="48" rx="10" fill="#7ec8ff"/>
    <rect x="988" y="216" width="48" height="48" rx="10"/>
    <rect x="864" y="278" width="48" height="48" rx="10"/>
    <rect x="926" y="278" width="48" height="48" rx="10"/>
    <rect x="988" y="278" width="48" height="48" rx="10"/>
  </g>
  <text x="74" y="228" font-family="Arial, sans-serif" font-size="52" font-weight="700" fill="#ffffff">Patch-wise vector quantization</text>
  <text x="74" y="294" font-family="Arial, sans-serif" font-size="52" font-weight="700" fill="#ffffff">for unsupervised medical</text>
  <text x="74" y="360" font-family="Arial, sans-serif" font-size="52" font-weight="700" fill="#ffffff">anomaly detection</text>
  <text x="74" y="456" font-family="Arial, sans-serif" font-size="30" fill="#e1efff">Medical AI • Anomaly detection • Representation learning</text>
  <rect x="74" y="572" width="520" height="116" rx="28" fill="#ffffff" opacity="0.12"/>
  <text x="112" y="628" font-family="Arial, sans-serif" font-size="24" font-weight="700" fill="#ffffff">Journal Paper</text>
  <text x="112" y="666" font-family="Arial, sans-serif" font-size="23" fill="#e1efff">Taejune Kim, Yun-Gyoo Lee, Inho Jeong, Soo-Youn Ham, and Simon S. Woo</text>
</svg>
